<?xml version="1.0" encoding="utf-8"?>
<!-- Generator: Adobe Illustrator 25.2.3, SVG Export Plug-In . SVG Version: 6.00 Build 0)  -->
<svg version="1.1" id="Laag_1" xmlns="http://www.w3.org/2000/svg" xmlns:xlink="http://www.w3.org/1999/xlink" x="0px" y="0px"
	 viewBox="0 0 406.3 167.3" style="enable-background:new 0 0 406.3 167.3;" xml:space="preserve">
<style type="text/css">
	.st0{fill:#C0D100;}
	.st1{fill:#231700;}
</style>
<g id="logo">
	<path class="st0" d="M295.4,35.4c17.8,2.6,32.3-9.8,44.7-19.8c-3,14.1,3.3,26.8,6.9,40.1c0.5,2.8,0.1,5.5,0.6,8.3
		c-16-2.3-31.6-7.4-44.3-20.1C300,40.6,297.6,38.4,295.4,35.4z"/>
	<path class="st0" d="M340,15.5c18.4-13.6,43.8-19.9,66.3-12.1c-10.2,7.6-13.9,20.7-14.9,33.3C376.8,24.5,357.4,20.8,340,15.5
		L340,15.5z"/>
	<path class="st0" d="M391.4,36.5c0,0-15.6,1-23.2,7.3s-8.8,9-11.4,11.8c-2,2.2-1.8,2.3-9.8,8.2c0,0,13.9,0.8,22.5,9.6
		c5.2,5.3,9.6,11.4,12.9,18.1c0,0,6.4-14.4,7.5-27.3s1.3-15.5,1.3-20.3S391.4,36.5,391.4,36.5z"/>
</g>
<g id="inagro">
	<path class="st0" d="M7.5,60.7C3.6,60.9,0.2,57.9,0,54c0-0.2,0-0.5,0-0.7c0-4.4,2.9-7.6,7.5-7.6s7.3,3.2,7.3,7.6S12,60.7,7.5,60.7z
		 M12.1,141.2c-7,0-10.9-3.7-10.9-10.7V73h12.1v54.3c0,2.5,0.5,4.3,2.9,4.3c1,0,2-0.2,3-0.5l0.8,8.7
		C17.5,140.7,14.8,141.2,12.1,141.2z"/>
	<path class="st0" d="M75.1,140.1V96c0-8.5-4.4-13.6-13.5-13.6c-5.1,0.1-9.9,2.3-13.1,6.2c-2.7,3.2-3.2,4.4-3.2,8.5v43.1H33.1V73
		h11.4v10.2C49.4,75.9,56.2,71,65.8,71c13.5,0,21.3,8.7,21.3,22.6v46.5H75.1z"/>
	<path class="st1" d="M149.5,141.2c-6.7,0-8.6-4.6-9.1-10C135.1,138,129,142,119.9,142c-11.1,0-19.3-8-19.3-18.8
		c0-18.2,18.3-21.6,33.1-21.6c4.8,0,5.8-0.1,5.8-2v-6.1c0-6.7-4-12.4-14-12.4c-6.1-0.1-12,2.3-16.3,6.7l-5.7-9.1
		c6.6-5.3,14-7.7,24.6-7.7c11.1,0,23,5.3,23,22.5v33.9c0,2.5,0.5,4.3,2.9,4.3c1,0,2-0.2,2.9-0.5l0.9,8.7
		C155.2,140.7,152.3,141.2,149.5,141.2z M139.4,110.1c-2,0-4.2-0.1-6.3-0.1c-8.6,0-20.3,1.5-20.3,12c0,5.8,4.6,10.1,11,10.1
		c5,0.1,9.7-2,12.9-5.8c1.9-2,2.9-4.8,2.8-7.6L139.4,110.1z"/>
	<path class="st1" d="M192.8,167.3c-13.6,0-26.3-5.9-26.3-16.9c-0.1-2.7,0.7-5.3,2.3-7.4l9.6,1c-0.6,1.3-0.9,2.6-0.9,4
		c0,6.8,6.8,10.6,15.7,10.6c9.7,0,18.2-4.6,18.2-12c0-6.4-4.8-8.3-9.5-8.3h-18.8c-9.7,0-15.4-3.9-16.8-9.6c1.8-6.5,5.2-12.4,10-17.1
		c-4.6-4-7.2-9.9-7.2-17.4c0-12.8,8.3-23,23.8-23c4.2,0,8.3,1,12,2.9c0.5-7.1,5.4-12.1,12.8-12.1c2.2,0,4.3,0.4,6.3,1.1l-1.7,10.2
		c-1.5-0.7-3.1-1-4.7-1c-3.3,0-6.2,2.4-6.2,7.5c3.4,4,5.2,9.1,5.1,14.4c0,12.3-8,22.6-23.8,22.6c-3.4,0-6.8-0.6-10-1.8
		c-2.5,2.4-4.3,5.4-5.4,8.7c1.3,2.8,4.2,4,8.7,4h19c9.7,0,18.3,4.9,18.3,16.8C223.3,160.4,207.3,167.3,192.8,167.3z M192.8,79.4
		c-8.8,0-12.2,7.8-12.2,14.5c0,7.1,3.4,14.5,12.1,14.5c10.4,0,12.3-9.7,12.3-14.5C205,87.1,201.6,79.4,192.8,79.4L192.8,79.4z"/>
	<path class="st1" d="M267.9,85.5c-1.7-0.9-3.6-1.4-5.6-1.5c-5.1,0-7.8,2.3-10.6,5.4c-2.1,2.4-2.4,4.8-2.4,8.1v42.6h-12.1v-54
		c0-2.8-0.8-4.6-2.9-4.6c-1,0.1-2,0.2-3,0.5l-0.9-8.7c2.7-0.8,5.5-1.3,8.3-1.4c6.6,0,9.2,4.3,9.1,11.6c3.9-6.2,9-12.3,17.2-12.3
		c2.1,0.1,4.2,0.4,6.2,1.1L267.9,85.5z"/>
	<path class="st1" d="M301.9,142.5c-21.2,0-30.3-17.6-30.3-36.1s10-35.6,30.8-35.6c21.2,0,30.2,17.2,30.2,35.6
		S322.9,142.5,301.9,142.5z M302.4,81.1c-13.8,0-18.2,14-18.2,25.3s3.7,25.8,17.7,25.8s18.2-14.5,18.2-25.5S316.4,81.1,302.4,81.1
		L302.4,81.1z"/>
</g>
</svg>
