<?xml version="1.0" encoding="utf-8"?>
<!-- Generator: Adobe Illustrator 27.0.0, SVG Export Plug-In . SVG Version: 6.00 Build 0)  -->
<svg version="1.1" id="Layer_1" xmlns="http://www.w3.org/2000/svg" xmlns:xlink="http://www.w3.org/1999/xlink" x="0px" y="0px"
     viewBox="0 0 41 10.6" style="enable-background:new 0 0 41 10.6;" xml:space="preserve">
<style type="text/css">
	.st0{fill:#009B48;}
</style>
  <g>
	<path class="st0" d="M5.7,10.6H3.6L0,0.2h1.9l2.7,7.9l2.7-7.9h1.9L5.7,10.6z"/>
    <path class="st0" d="M12.4,0.2v8.5h4.3v1.8h-6.1V0.2H12.4z"/>
    <path class="st0" d="M20.9,0H23l3.6,10.5h-1.9L24,8.4h-4l-0.7,2.1h-1.9L20.9,0z M23.3,6.6l-1.4-4l-1.4,4H23.3z"/>
    <path class="st0" d="M29.7,0.2v10.3h-1.8V0.2H29.7z"/>
    <path class="st0" d="M31.2,5.3c0-1.5,0.5-2.8,1.4-3.8S34.7,0,36.1,0s2.7,0.6,3.5,1.5c0.8,1,1.3,2.3,1.3,3.8s-0.5,2.8-1.4,3.8
		s-2.1,1.5-3.6,1.5s-2.7-0.6-3.5-1.5C31.7,8.1,31.2,6.8,31.2,5.3z M33,5.2c0,1,0.3,1.9,0.8,2.6c0.5,0.6,1.3,1,2.3,1s1.8-0.4,2.3-1
		s0.8-1.5,0.8-2.5c0-1.2-0.4-2.1-1-2.7S36.8,1.7,36,1.7S34.5,2,33.9,2.6C33.4,3.2,33,4.1,33,5.2z"/>
</g>
</svg>
